<svg width="20" height="24" viewBox="0 0 20 24" fill="none" xmlns="http://www.w3.org/2000/svg">
<path d="M17 18H16.606C15.323 15.4928 14.4676 12.7889 14.075 10H15C15.2652 10 15.5196 9.89464 15.7071 9.7071C15.8946 9.51957 16 9.26521 16 9C16 8.73478 15.8946 8.48043 15.7071 8.29289C15.5196 8.10536 15.2652 8 15 8H14.608C14.608 8 15.7 6.318 15.715 6.277C15.9301 5.81975 16.0262 5.31557 15.9944 4.81126C15.9626 4.30694 15.804 3.81883 15.5331 3.39221C15.2623 2.96559 14.8881 2.61429 14.4453 2.3709C14.0025 2.12752 13.5053 1.99994 13 2H11V1C11 0.734783 10.8946 0.48043 10.7071 0.292893C10.5196 0.105357 10.2652 0 10 0C9.73478 0 9.48043 0.105357 9.29289 0.292893C9.10536 0.48043 9 0.734783 9 1V2H7C6.49494 2.00044 5.99816 2.12839 5.55573 2.37199C5.11329 2.61558 4.73951 2.96693 4.46905 3.39348C4.19858 3.82002 4.04018 4.30794 4.00854 4.81201C3.97689 5.31608 4.07301 5.81998 4.288 6.277C4.307 6.318 5.4 8 5.4 8H5C4.73478 8 4.48043 8.10536 4.29289 8.29289C4.10536 8.48043 4 8.73478 4 9C4 9.26521 4.10536 9.51957 4.29289 9.7071C4.48043 9.89464 4.73478 10 5 10H5.926C5.53269 12.7889 4.67695 15.4927 3.394 18H3C2.20435 18 1.44129 18.3161 0.87868 18.8787C0.316071 19.4413 0 20.2043 0 21C0 21.7956 0.316071 22.5587 0.87868 23.1213C1.44129 23.6839 2.20435 24 3 24H17C17.7956 24 18.5587 23.6839 19.1213 23.1213C19.6839 22.5587 20 21.7956 20 21C20 20.2043 19.6839 19.4413 19.1213 18.8787C18.5587 18.3161 17.7956 18 17 18ZM6.075 5.374C6.01387 5.22241 5.99083 5.05814 6.00789 4.89559C6.02496 4.73303 6.08161 4.57713 6.17289 4.44154C6.26417 4.30595 6.3873 4.1948 6.53149 4.11783C6.67569 4.04085 6.83655 4.0004 7 4H13C13.1637 3.99991 13.3249 4.04 13.4695 4.11677C13.6141 4.19354 13.7376 4.30464 13.8293 4.4403C13.9209 4.57596 13.9778 4.73204 13.995 4.89484C14.0122 5.05764 13.9892 5.22217 13.928 5.374L12.224 8H7.779L6.075 5.374ZM7.935 10H12.065C12.3984 12.7748 13.1813 15.4768 14.383 18H5.617C6.81868 15.4768 7.60159 12.7748 7.935 10ZM17 22H3C2.73478 22 2.48043 21.8946 2.29289 21.7071C2.10536 21.5196 2 21.2652 2 21C2 20.7348 2.10536 20.4804 2.29289 20.2929C2.48043 20.1054 2.73478 20 3 20H17C17.2652 20 17.5196 20.1054 17.7071 20.2929C17.8946 20.4804 18 20.7348 18 21C18 21.2652 17.8946 21.5196 17.7071 21.7071C17.5196 21.8946 17.2652 22 17 22Z" fill="#476EE6"/>
</svg>
